<?xml version="1.0" standalone="no"?>
<svg viewBox="0 0 200 200" xmlns="http://www.w3.org/2000/svg">
  <path fill="#08BDBA" d="M27.7,-48.9C37.5,-36.7,48.2,-31.8,48.9,-24.1C49.6,-16.4,40.3,-6,36.1,3.3C31.9,12.7,32.7,20.9,30,28.3C27.2,35.7,20.8,42.3,13.7,42.5C6.6,42.6,-1.1,36.4,-13.3,36.7C-25.4,37,-42.1,43.9,-51,40.4C-60,36.9,-61.3,22.9,-55.4,12.7C-49.4,2.5,-36.3,-4,-30.4,-12.6C-24.5,-21.2,-25.9,-31.8,-22,-46.7C-18.2,-61.5,-9.1,-80.7,-0.1,-80.6C8.9,-80.5,17.8,-61.1,27.7,-48.9Z" transform="translate(100 100)" />
</svg>
