<?xml version="1.0" standalone="no"?>
<svg viewBox="0 0 200 200" xmlns="http://www.w3.org/2000/svg">
  <path fill="#5baac1" d="M16.5,-30.3C20.3,-23.3,21.4,-16.8,26.8,-10.6C32.2,-4.4,41.9,1.5,43,7.4C44.1,13.3,36.6,19.3,32.1,32C27.6,44.8,26.1,64.3,20.1,64.2C14,64,3.4,44.2,-3.6,32.8C-10.7,21.4,-14.2,18.4,-19.8,15.3C-25.4,12.2,-33.1,9,-32.4,5.4C-31.8,1.8,-22.9,-2.3,-17,-4.6C-11,-6.9,-8,-7.3,-5.7,-14.9C-3.3,-22.5,-1.7,-37.3,2.4,-41C6.4,-44.7,12.8,-37.3,16.5,-30.3Z" transform="translate(100 100)" />
</svg>
